<svg id="Layer_1" data-name="Layer 1" xmlns="http://www.w3.org/2000/svg" viewBox="0 0 482.11 290.81"><title>sep_logo</title><path id="path4017" d="M51.2,104.25C49,104.18,48,109.35,47.87,120c-.2,26.72,11.74,50,35.13,68.76,19.64,15.72,49.57,29.34,85.38,38.86,18.94,5,17.89,6.32-2.73,3.29-28.46-4.18-46.82-10.41-91.19-31-10.26-4.76-12.24-5.53-12.84-4.93-.27.27.11,2.52.86,5,5.27,17.51,20.56,31.93,41.77,39.38,15.88,5.58,33.9,8.9,65.92,12.13,9,.91,16.34,2.1,16.35,2.65,0,1.88-11.63,3.39-26.32,3.43-19,.05-34.73-2.6-68.39-11.54-5.93-1.57-11.09-2.54-11.46-2.16-1.19,1.19,6.29,11.29,11.83,16,15.05,12.71,33.14,17.88,62.49,17.88,14.68,0,36.29-2.37,42.07-4.59a1.83,1.83,0,0,1,2.13.33c.71,1.14-7.11,5.42-13.92,7.62-9.55,3.08-24.52,4.66-44.65,4.67H120.81l2.28,2.43c6.19,6.58,22.07,11.65,36.58,11.65,9.81,0,28.83-3.3,41.21-7.13,5.45-1.68,10.09-2.83,10.34-2.58.73.74-5.92,5.45-10.27,7.28-7.2,3-16.68,5.36-30.46,7.46-7.48,1.14-13.78,2.25-14,2.46s1.09,1.36,2.95,2.51c15.88,9.78,47.52,7.63,72.12-4.93,5.13-2.62,6.38-2,3.06,1.49-3.73,4-11.62,8.09-22.06,11.46-13,4.2-13.13,4.25-9.56,5.11,10.41,2.51,28.13-.29,45-7.13,15.34-6.22,20.79-8,20.79-6.83,0,.58-7.58,8.69-16.83,18s-17,17.46-17.17,18c-1.26,3.78,8.31,6,14.74,3.43,3.52-1.41,5.23-3.4,12.39-14.22,4.57-6.91,8.45-12.12,8.62-11.61s-2.63,7.14-6.23,14.71c-7.59,15.94-8.1,17.58-6.34,20s8.21,2.59,10.79.26c2.38-2.16,3.34-5,6.12-18.11,1.17-5.53,2.56-10.49,3.06-11,1.22-1.27,1.18-.28-.6,14-2.06,16.55-2,17.26,1.53,20.83,2.56,2.56,3.58,3,6.27,2.46a10.25,10.25,0,0,0,5.12-2.91c2-2.35,2-4.79.07-29.38-.82-10.54,1.12-6.11,4,9,1.3,6.94,3,13.35,3.77,14.26a14.25,14.25,0,0,0,4.59,3c4.29,1.79,8.33.13,8.33-3.43,0-1.35-3-9.08-6.61-17.17-8.28-18.38-7.85-17.21-6.61-17.21.58,0,4.11,4.61,7.87,10.23,8.74,13,11.93,16.38,17.06,17.92,3.38,1,5,1,8.47-.15,2.36-.76,4.45-1.94,4.67-2.61.46-1.42-2.06-4-22.06-22.81-8.13-7.65-14.55-14.25-14.3-14.67.74-1.2,9.08,1.67,19.08,6.57,18.77,9.19,34.16,12,47.63,8.81,2-.47.93-1-5-2.76-9.41-2.74-16.21-5.74-22.18-9.78-4.36-3-8.72-8.34-7.61-9.44.27-.27,2.93,1.05,5.9,2.95,6.31,4,16.78,8.57,26,11.27,5.06,1.49,9.68,1.94,20.57,1.94,13.67,0,14.26-.09,20.72-3.14,8.61-4.05,9.18-5.11,3.17-5.86-20.87-2.63-34.92-6.63-43.41-12.39-5.49-3.73-8.27-7.34-4.44-5.75C379,300.14,396.12,304,413,304.08c14.17.1,21.41-1.5,30.31-6.72,10.87-6.37,10.64-6.61-6-6.61-16.1,0-31.41-1.31-42.93-3.66-10.73-2.19-26.71-9.17-25-10.9.28-.28,4.76.43,10,1.57,44.75,9.82,85.16,4.63,103.32-13.25,4.35-4.28,11-15.44,9.86-16.57-.23-.23-2.42.28-4.85,1.16-8.91,3.21-34.85,9.4-45.88,10.94-12.52,1.74-33.82,2.05-42.48.64a109.85,109.85,0,0,1-11.57-2.73l-5.93-1.79,13.55-.75c36.37-2,53.41-4.36,71.3-10.08,21.39-6.83,36.08-17.35,42.55-30.5,2.55-5.17,5.3-15.24,4.41-16.13-.28-.28-3.41.92-6.91,2.69-41.5,20.95-75.34,31.29-107.36,32.78-14,.65-15.37-.58-3-2.65,4.14-.7,14.3-3,22.58-5.08,38.89-9.88,66.71-24,85.52-43.38,11.28-11.61,18.37-23.75,22.47-38.49,2.49-8.94,3.94-32.31,2.28-36.62l-1-2.46-4.93,5A176.88,176.88,0,0,0,511.24,125a233.13,233.13,0,0,1-19.56,21.61c-43.2,42-88.89,65.73-144.87,75.33l-3.92.64.86,10.75c1.4,18.2.36,23.08-6.23,29.68-3.71,3.71-6.67,5.16-13.7,6.72-16,3.56-29.84-7.29-29.86-23.44v-5.83l4.7-2.72c11.81-4.65,15.68-14.58,15.68-16.31,0-.61-2,2.07-4.33,3.17-5.77,2.79-12.79,4-24.78,3.54-8.46-.3-11.44-.49-13.62,1-1.47,1-5.35,4-9.15,5.3-7.14,2.35-9.47,3.65-11,7.2-2.49,5.87-1.36,2.79,3.36,2,7.6-1.24,16.2,2,17.51,7.92,2.22,10.12-6,17.06-20.31,17.06-10.77,0-19.45-4.57-23.63-12.39-2.09-3.91-2.23-5.31-2-19.79l.22-15.6-10.79-2.31C163.1,207.17,113.67,177.4,79.45,136.47c-5-5.94-12-14-15.57-18a133.52,133.52,0,0,1-9-10.9c-1.46-2.17-2.67-3.29-3.66-3.32Zm224,127.11c2.93,0,3,1,3.29,3.4-.8,2.1-5.48,2.29-6.27.22C271.28,232.52,272.63,231.36,275.21,231.36Z" transform="translate(-47.87 -75.09)"/><path id="path4021" d="M304.26,209.29c-.68-.68-1.05-10.17-1.05-26.77,0-18.66-.33-26-1.2-26.92s-6.37-1.21-18.39-1.21-17.54.36-18.38,1.21-1.24,6.94-1.32,20.34c-.06,10.53-.4,22.08-.75,25.67l-.63,6.53-8-.3c-5.18-.2-8.9-.87-10.45-1.89l-2.42-1.58.72-62.34c.43-37,1.12-63.08,1.7-64.17.83-1.55,2.3-1.82,9.78-1.82,5.51,0,9.26.45,10,1.2s1.21,7.83,1.21,25c0,17.81.31,24,1.25,24.81.69.56,8.49,1.34,17.33,1.72,13.24.57,16.41.44,18-.76,1.77-1.34,2-3.29,2.4-25.26.38-18.88.77-24.11,1.92-25.26,1.72-1.72,13.78-2,18-.4l2.73,1L325.9,142c-.4,35.12-1,64.46-1.25,65.22-.8,2.08-18.58,3.93-20.39,2.11Z" transform="translate(-47.87 -75.09)"/><path id="path4023" d="M347.41,142c0-47.34.29-62.88,1.21-63.79s11-1.21,39.05-1.21c33.27,0,38,.2,39.17,1.59S427.95,89,427,129c-1.06,45.2-1.28,48.95-3,50.67-2.32,2.32-17.39,8.94-18.62,8.18-.53-.33-.79-18.62-.61-43.8.3-42,.25-43.27-1.67-44.44-1.45-.89-5.38-1-15-.37-18.83,1.2-17.16.11-17.92,11.65-.36,5.39-.65,27.05-.66,48.12,0,44.46.69,41.52-10.36,44a64.12,64.12,0,0,1-9.29,1.55h-2.45V142Z" transform="translate(-47.87 -75.09)"/><path id="path4025" d="M214,200.54c-17.92-4.63-53-18.15-59.46-22.9-2.08-1.54-2.56-2.84-2.81-7.54l-.3-5.69,9.85-9.78c12.68-12.61,17.63-18.72,17.63-21.79,0-2.55-8-16.23-19-32.5-3.48-5.15-6.38-10.35-6.45-11.55s-.29-3.75-.5-5.64A9.62,9.62,0,0,1,154,77.4l1.51-2.31,32.89.61c19.12.36,33.42,1,34.15,1.6s1.26,3.85,1.26,9.29c0,6.54-.39,8.79-1.83,10.57l-1.83,2.26-15.5-1.15c-18.87-1.41-23-1.43-23-.15,0,.54,1.85,4,4.11,7.69,9.6,15.68,16,27.81,16,30.37s-5.84,10.5-20.18,27.56c-1.84,2.19-2.83,4.19-2.32,4.67,1.5,1.41,19.24,6.7,32,9.54,6.63,1.47,12.45,3.06,12.93,3.54.92.91,1,18.79,0,20.26-.7,1.13-1.61,1-10.26-1.21Z" transform="translate(-47.87 -75.09)"/></svg>