<svg id="Layer_1" data-name="Layer 1" xmlns="http://www.w3.org/2000/svg" xmlns:xlink="http://www.w3.org/1999/xlink" viewBox="0 0 720 1008"><defs><style>.cls-1,.cls-3,.cls-39{fill:none;}.cls-2,.cls-40{fill:#fff;}.cls-2{opacity:0;}.cls-3{stroke:#d82959;stroke-linecap:round;}.cls-3,.cls-39{stroke-miterlimit:10;stroke-width:3px;}.cls-20,.cls-24,.cls-4{fill:#d82959;}.cls-20,.cls-5{font-size:27px;font-family:MyriadPro-Regular, Myriad Pro;}.cls-6{letter-spacing:0.05em;}.cls-7{letter-spacing:0.07em;}.cls-8{letter-spacing:0.05em;}.cls-9{letter-spacing:0.01em;}.cls-10,.cls-18,.cls-23{font-size:22px;}.cls-11{letter-spacing:-0.01em;}.cls-12{letter-spacing:0em;}.cls-13{letter-spacing:-0.01em;}.cls-14{letter-spacing:-0.01em;}.cls-15{letter-spacing:-0.01em;}.cls-16{font-size:15px;}.cls-17{letter-spacing:-0.01em;}.cls-18{letter-spacing:0.01em;}.cls-19{letter-spacing:0em;}.cls-21{letter-spacing:0.05em;}.cls-22{letter-spacing:-0.03em;}.cls-23{fill:#000;}.cls-24,.cls-31{letter-spacing:0em;}.cls-25{letter-spacing:-0.01em;}.cls-26{letter-spacing:-0.02em;}.cls-27{letter-spacing:0.05em;}.cls-28{letter-spacing:0.06em;}.cls-29{letter-spacing:0.01em;}.cls-30{letter-spacing:-0.01em;}.cls-32{letter-spacing:0.03em;}.cls-33{letter-spacing:0.02em;}.cls-34{letter-spacing:-0.02em;}.cls-35{letter-spacing:-0.01em;}.cls-36{letter-spacing:-0.01em;}.cls-37{clip-path:url(#clip-path);}.cls-38{fill:#eaeaea;}.cls-39{stroke:#686868;}.cls-41{fill:#ff9b4f;}.cls-42{clip-path:url(#clip-path-2);}.cls-43{fill:#172967;}.cls-44{fill:#7ac3f4;}.cls-45{fill:#726d61;}.cls-46{fill:#4c4c4c;}.cls-47{clip-path:url(#clip-path-3);}.cls-48{fill:#ffe19f;}.cls-49{fill:#ffc08f;}</style><clipPath id="clip-path" transform="translate(0 0)"><path class="cls-1" d="M555.36,553.29c0-32.15,12.71-100-59.2-100-69.58,0-57.23,67.86-57.23,100a58.22,58.22,0,0,0,116.43,0Z"/></clipPath><clipPath id="clip-path-2" transform="translate(0 0)"><circle class="cls-1" cx="496.16" cy="519.66" r="21.81"/></clipPath><clipPath id="clip-path-3" transform="translate(0 0)"><circle class="cls-1" cx="243.48" cy="341.52" r="62.52"/></clipPath></defs><title>web-timeline</title><rect class="cls-2" width="720" height="1008"/><line class="cls-3" x1="358.94" y1="29.21" x2="358.93" y2="975.7"/><circle class="cls-4" cx="358.22" cy="118.78" r="7.22"/><circle class="cls-4" cx="358.22" cy="328.76" r="7.22"/><circle class="cls-4" cx="358.22" cy="528.17" r="7.22"/><circle class="cls-4" cx="358.22" cy="715.98" r="7.22"/><circle class="cls-4" cx="466.77" cy="128.81" r="64.23"/><circle class="cls-4" cx="243.48" cy="341.52" r="62.52"/><circle class="cls-4" cx="497.14" cy="553.29" r="58.21"/><text class="cls-5" transform="translate(72.6 126)"><tspan class="cls-6">ME<tspan class="cls-7" x="37.69" y="0">E</tspan><tspan class="cls-8" x="52.76" y="0">T</tspan><tspan class="cls-9" x="67.53" y="0"> </tspan><tspan x="73.49" y="0">THE CHAPTER</tspan></tspan><tspan class="cls-10"><tspan x="151.37" y="26.4">1/29, 8</tspan><tspan class="cls-11" x="213.27" y="26.4">P</tspan><tspan x="224.72" y="26.4">M</tspan><tspan x="141.69" y="52.8">Ba</tspan><tspan class="cls-12" x="164.22" y="52.8">r</tspan><tspan class="cls-13" x="171.5" y="52.8">r</tspan><tspan class="cls-14" x="178.47" y="52.8">o</tspan><tspan class="cls-15" x="190.4" y="52.8">w</tspan><tspan x="206.46" y="52.8">s 20</tspan></tspan><tspan class="cls-16"><tspan x="138.63" y="70.8">*Business </tspan><tspan class="cls-17" x="201.6" y="70.8">C</tspan><tspan x="210.2" y="70.8">asual</tspan></tspan></text><text class="cls-5" transform="translate(414 333)"><tspan class="cls-6">SOCIAL NIGHT</tspan><tspan class="cls-10"><tspan x="0" y="26.4">1/31, 8</tspan><tspan class="cls-11" x="61.91" y="26.4">P</tspan><tspan x="73.35" y="26.4">M</tspan></tspan><tspan class="cls-18"><tspan x="0" y="52.8">M</tspan><tspan class="cls-19" x="17.82" y="52.8">offitt 102</tspan></tspan><tspan class="cls-16"><tspan x="0" y="70.8">*</tspan><tspan class="cls-17" x="6.23" y="70.8">C</tspan><tspan x="14.82" y="70.8">asual</tspan></tspan></text><circle class="cls-4" cx="497.14" cy="553.29" r="58.21"/><text class="cls-20" transform="translate(67.08 540)"><tspan class="cls-6">APPLI<tspan class="cls-21" x="71.2" y="0">C</tspan><tspan class="cls-22" x="88.32" y="0">A</tspan><tspan class="cls-8" x="104.11" y="0">TIONS DUE</tspan></tspan><tspan class="cls-23"><tspan x="83.96" y="26.4">2/1, 12</tspan><tspan class="cls-11" x="145.86" y="26.4">P</tspan><tspan x="157.3" y="26.4">M </tspan><tspan class="cls-24" x="179.65" y="26.4">NOON</tspan><tspan x="61.91" y="52.8">ucbe</tspan><tspan class="cls-12" x="107.43" y="52.8">r</tspan><tspan x="114.71" y="52.8">kele</tspan><tspan class="cls-25" x="152.26" y="52.8">y</tspan><tspan x="162.49" y="52.8">se</tspan><tspan class="cls-26" x="182.23" y="52.8">p</tspan><tspan x="194.22" y="52.8">.</tspan><tspan class="cls-25" x="198.77" y="52.8">c</tspan><tspan class="cls-19" x="208.49" y="52.8">om</tspan></tspan></text><circle class="cls-4" cx="243.48" cy="722.63" r="59.1"/><text class="cls-5" transform="translate(423 720)"><tspan class="cls-6">P<tspan class="cls-27" x="15.71" y="0">R</tspan><tspan x="31.67" y="0">OFESSIONAL</tspan></tspan><tspan class="cls-8"><tspan x="0" y="32.4">INTE</tspan><tspan class="cls-7" x="56.32" y="32.4">R</tspan><tspan class="cls-6" x="72.63" y="32.4">VI</tspan><tspan class="cls-28" x="96.85" y="32.4">E</tspan><tspan class="cls-6" x="111.72" y="32.4">WS</tspan></tspan><tspan class="cls-10"><tspan x="0" y="58.8">2/2-2/3</tspan><tspan class="cls-29" x="0" y="85.2">I</tspan><tspan class="cls-30" x="5.48" y="85.2">n</tspan><tspan class="cls-31" x="17.4" y="85.2">vi</tspan><tspan class="cls-25" x="33.13" y="85.2">t</tspan><tspan class="cls-32" x="40.28" y="85.2">e</tspan><tspan class="cls-33" x="51.92" y="85.2">-</tspan><tspan x="59.07" y="85.2">only</tspan></tspan><tspan class="cls-16"><tspan x="0" y="103.2">*Business </tspan><tspan class="cls-34" x="62.97" y="103.2">P</tspan><tspan class="cls-35" x="70.71" y="103.2">r</tspan><tspan x="75.46" y="103.2">o</tspan><tspan class="cls-36" x="83.7" y="103.2">f</tspan><tspan x="87.88" y="103.2">essional</tspan></tspan></text><g class="cls-37"><rect class="cls-38" x="450.62" y="486.79" width="91.08" height="158.85" rx="12.47"/></g><line class="cls-39" x1="472.97" y1="552.55" x2="521.32" y2="552.55"/><line class="cls-39" x1="472.97" y1="563.88" x2="521.32" y2="563.88"/><line class="cls-39" x1="472.97" y1="575.22" x2="521.32" y2="575.22"/><line class="cls-39" x1="472.97" y1="586.56" x2="521.32" y2="586.56"/><line class="cls-39" x1="472.97" y1="597.9" x2="521.32" y2="597.9"/><circle class="cls-40" cx="496.16" cy="519.66" r="21.81"/><circle class="cls-41" cx="496.16" cy="515.9" r="9.24"/><g class="cls-42"><ellipse class="cls-43" cx="496.16" cy="541.56" rx="16.07" ry="15.33"/></g><rect class="cls-38" x="197.89" y="670.83" width="91.19" height="64.46" rx="9.17"/><path class="cls-38" d="M212.79,745.75v-15.4h24.62l-20.58,17.28A2.46,2.46,0,0,1,212.79,745.75Z" transform="translate(0 0)"/><rect class="cls-44" x="235.02" y="721.35" width="46.72" height="33.03" rx="4.7" transform="translate(516.76 1475.72) rotate(-180)"/><path class="cls-44" d="M274.11,759.73v-7.88H261.49L272,760.7A1.26,1.26,0,0,0,274.11,759.73Z" transform="translate(0 0)"/><circle class="cls-45" cx="243.48" cy="703.06" r="5.63"/><circle class="cls-45" cx="260.8" cy="703.06" r="5.63"/><circle class="cls-45" cx="226.16" cy="703.06" r="5.63"/><circle class="cls-46" cx="258.38" cy="737.86" r="2.57"/><circle class="cls-46" cx="266.3" cy="737.86" r="2.57"/><circle class="cls-46" cx="250.46" cy="737.86" r="2.57"/><path class="cls-43" d="M232.86,305.31H250.3a20.16,20.16,0,0,1,20.16,20.16v27a20.16,20.16,0,0,1-20.16,20.16H232.86a0,0,0,0,1,0,0V305.31A0,0,0,0,1,232.86,305.31Z" transform="translate(-170.1 320.34) rotate(-50.88)"/><g class="cls-47"><path class="cls-48" d="M208,365.23c-7,2.31-14.55,1.45-21.72-.07a18.3,18.3,0,0,0-4.81-.62,5.6,5.6,0,0,0-4.23,2,7.2,7.2,0,0,0-1,4.38c.09,8.24,45,41.32,53.12,42.87a9.81,9.81,0,0,0,3.69.24,3.47,3.47,0,0,0,2.77-2.2c.41-1.38-.38-2.8-1-4.08-3.29-6.45-3.59-14.09-2.25-21.2s7-18.81,7-18.81l-15.29-12.35S211.2,364.16,208,365.23Z" transform="translate(0 0)"/></g><path class="cls-43" d="M228.61,345.57h8.88a7.49,7.49,0,0,1,7.49,7.49V358a7.49,7.49,0,0,1-7.49,7.49h-8.88a0,0,0,0,1,0,0v-19.9A0,0,0,0,1,228.61,345.57Z" transform="translate(-188.43 314.91) rotate(-50.88)"/><path class="cls-38" d="M263.19,295c9.24-4.11,21.64-8,31.76-7.94.55,15.85-.32,24.59-3.2,31.82-7.65,19.2-37.71,48-40,48s-27.6-20.49-27.86-22.45C223.59,342.05,246.69,302.37,263.19,295Z" transform="translate(0 0)"/><path class="cls-43" d="M263.19,295A62.34,62.34,0,0,1,295,287.1c3.17,16.32-3.2,31.82-3.2,31.82Z" transform="translate(0 0)"/><path class="cls-40" d="M259.51,336.58a9.58,9.58,0,1,1,9.58-9.58A9.59,9.59,0,0,1,259.51,336.58Z" transform="translate(0 0)"/><path class="cls-43" d="M259.51,318.92a8.08,8.08,0,1,1-8.08,8.08,8.09,8.09,0,0,1,8.08-8.08m0-3A11.08,11.08,0,1,0,270.59,327a11.08,11.08,0,0,0-11.08-11.08Z" transform="translate(0 0)"/><rect class="cls-41" x="481.09" y="115.04" width="18.84" height="27.7"/><path class="cls-41" d="M467.42,109.83H484a2.9,2.9,0,0,1,2.9,2.9v38.34a10.06,10.06,0,0,1-10.06,10.06H457.71a2.9,2.9,0,0,1-2.9-2.9V122.44a12.61,12.61,0,0,1,12.61-12.61Z" transform="translate(749.65 538.39) rotate(-140.73)"/><path class="cls-49" d="M450.26,111.87h14.55A11.23,11.23,0,0,1,476,123.1V157a4.42,4.42,0,0,1-4.42,4.42H459.49a13.66,13.66,0,0,1-13.66-13.66V116.29a4.42,4.42,0,0,1,4.42-4.42Z" transform="translate(51.96 389.37) rotate(-48.23)"/><rect class="cls-49" x="431.77" y="116.69" width="20.99" height="26.05"/><path class="cls-41" d="M452.33,127.93a3.6,3.6,0,0,0,2.66,3.79c1.94.55,4.93-.25,6.78-1.68,1.6-1.23,19.15-18.84,16.82-20.08-2.53-1.35-10.33,0-12.32.61S452.46,126.75,452.33,127.93Z" transform="translate(0 0)"/><rect class="cls-43" x="493.81" y="107.46" width="50.84" height="39.08" rx="6.11" transform="translate(-9.2 46.44) rotate(-5.08)"/><rect class="cls-44" x="394.53" y="109.19" width="44.45" height="35.61" rx="5.57" transform="translate(19.2 -51.23) rotate(7.2)"/></svg>