<?xml version="1.0" encoding="utf-8"?>
<!-- Generator: Adobe Illustrator 22.1.0, SVG Export Plug-In . SVG Version: 6.00 Build 0)  -->
<svg version="1.1" id="Layer_1" xmlns="http://www.w3.org/2000/svg" xmlns:xlink="http://www.w3.org/1999/xlink" x="0px" y="0px"
	 viewBox="0 0 199.7 72.7" style="enable-background:new 0 0 199.7 72.7;" xml:space="preserve">
<style type="text/css">
	.st0{fill:#003262;}
	.st1{fill:#D39000;}
	.st2{fill:#003262;stroke:#011E41;stroke-width:0.436;stroke-miterlimit:10;}
	.st3{fill:#E3AB47;}
	.st4{fill:#FFFFFF;}
</style>
<g id="XMLID_797_">
	<g id="XMLID_983_">
		<polygon class="st0" points="2.6,72.7 13.4,72.7 13.4,19 2.7,24.4 2.6,27 		"/>
	</g>
	<g id="XMLID_982_">
		<polygon class="st1" points="24.1,72.7 24.1,24.3 13.4,19 13.4,72.7 		"/>
	</g>
	<g id="XMLID_980_">
		<path class="st2" d="M41,38.3c0-1.2-1.1-1.6-3.3-2.2c-2.1-0.6-4.5-1.5-4.5-4.2c0-2.5,2-4.2,5.3-4.2c2,0,3.6,0.5,5,1.2l-0.7,2.3
			c-1.3-0.7-2.9-1.2-4.3-1.2c-1.7,0-2.5,0.7-2.5,1.7c0,1.1,1.3,1.6,3.3,2.1c2.2,0.6,4.5,1.6,4.5,4.2c0,2.6-2.1,4.4-5.6,4.4
			c-1.9,0-3.9-0.5-5.3-1.3l0.7-2.4c1.4,0.8,2.9,1.4,4.7,1.4C39.9,40.2,41,39.5,41,38.3z"/>
		<path class="st2" d="M49.7,31.8v6.3c0,1.5,0.7,2,1.8,2c1,0,1.9-0.4,2.4-0.9v-7.5h2.8v10.3l-2.8,0.4c0,0,0-1.4,0-1.5
			c-0.9,0.9-2.2,1.6-3.6,1.6c-2.1,0-3.4-1.4-3.4-3.6v-7.1H49.7z"/>
		<path class="st2" d="M64.2,42.5c-2.4,0-3.7-1-3.6-3.5l0.2-4.9L59.1,34l0.1-1.7l1.7-0.5l0-2.3h2.7l0,2.4h3l-0.1,2.2h-3.1l-0.1,4.8
			c0,1,0.5,1.4,1.4,1.4c0.6,0,1.1-0.1,1.7-0.3l0.4,2.2C65.9,42.4,65.2,42.5,64.2,42.5z"/>
		<path class="st2" d="M75.3,41c-0.8,0.9-1.7,1.5-3,1.5c-1.9,0-3.4-1.3-3.4-2.9c0-1.9,1.5-3.5,6.4-3.7v-0.2c0-1.4-0.6-2-2.2-2
			c-1.1,0-2.4,0.5-3.6,1.1L69,32.7c1.1-0.6,2.7-1.2,4.5-1.2c3.3,0,4.6,1.4,4.5,4.3v3.7c0,0.8,0.1,0.9,1,0.9l-0.2,2
			C76.8,42.7,75.8,42,75.3,41L75.3,41z M75.3,37.3c-2.7,0.3-3.7,0.8-3.7,1.9c0,0.8,0.6,1.4,1.6,1.4c0.9,0,1.6-0.4,2.1-0.9V37.3z"/>
		<path class="st2" d="M84.5,42.2h-2.8V31.9l2.8-0.4v1.7c0.7-1.1,1.5-1.7,2.8-1.7c0.7,0,1.3,0.1,1.9,0.5l-0.6,2.4
			c-0.5-0.3-1-0.4-1.5-0.4c-1,0-1.9,0.6-2.6,1.8V42.2z"/>
		<path class="st2" d="M98.6,27.1l2.8-0.4v15.4h-2.8c0,0,0-0.9,0-1c-0.7,0.7-1.7,1.4-3,1.4c-2.9,0-4.7-2.2-4.7-5.5
			c0-3.3,2.4-5.6,5.5-5.6c0.8,0,1.6,0.1,2.3,0.3V27.1z M96.6,33.6c-1.9,0-2.9,1.5-2.9,3.4c0,2,1.1,3.3,2.7,3.3
			c0.9,0,1.6-0.3,2.2-0.9c0,0.1,0-5.2,0-5.2C98.1,33.8,97.4,33.6,96.6,33.6z"/>
		<path class="st2" d="M103.2,44.2c1.3-0.6,1.9-1.4,1.9-3.5c0,0.3,0-10,0-10l2.8-0.4c0,0,0,10.6,0,10.4c0,2.9-0.8,4.4-3,5.2
			L103.2,44.2z M106.5,28.9c-1.1,0-1.7-0.6-1.7-1.5c0-0.9,0.6-1.5,1.7-1.5c1.1,0,1.7,0.6,1.7,1.5C108.2,28.3,107.6,28.9,106.5,28.9z
			"/>
		<path class="st2" d="M117.2,41c-0.8,0.9-1.7,1.5-3,1.5c-1.9,0-3.4-1.3-3.4-2.9c0-1.9,1.5-3.5,6.4-3.7v-0.2c0-1.4-0.6-2-2.2-2
			c-1.1,0-2.4,0.5-3.6,1.1l-0.6-2.1c1.1-0.6,2.7-1.2,4.5-1.2c3.3,0,4.6,1.4,4.5,4.3v3.7c0,0.8,0.1,0.9,1,0.9l-0.2,2
			C118.7,42.7,117.7,42,117.2,41L117.2,41z M117.2,37.3c-2.7,0.3-3.7,0.8-3.7,1.9c0,0.8,0.6,1.4,1.6,1.4c0.9,0,1.6-0.4,2.1-0.9V37.3
			z"/>
		<path class="st2" d="M139.8,31.3c-1.2-0.7-2.4-1.1-3.8-1.1c-2.9,0-4.8,1.9-4.8,5c0,3.1,1.9,5.1,4.8,5.1c1.5,0,2.9-0.5,4-1.3
			l0.5,2.5c-1.2,0.7-3,1.1-4.7,1.1c-4.5,0-7.6-2.7-7.6-7.3c0-4.5,3.1-7.4,7.6-7.4c1.7,0,3.5,0.4,4.7,1.1L139.8,31.3z"/>
		<path class="st2" d="M145.6,37.6c0.1,1.7,1.3,2.8,3.2,2.8c1.1,0,2.4-0.4,3.4-0.9l0.4,2.2c-1,0.5-2.5,0.9-3.9,0.9
			c-3.5,0-5.8-2.1-5.8-5.4c0-3.4,2.3-5.6,5.6-5.6c2.9,0,4.5,1.7,4.5,4.2c0,0.6-0.1,1.3-0.2,1.7C152.6,37.4,145.6,37.5,145.6,37.6
			L145.6,37.6z M150.3,35.9c0,0,0-0.2,0-0.2c0-1.4-0.6-2.3-2.1-2.3c-1.5,0-2.4,1.2-2.6,2.5L150.3,35.9z"/>
		<path class="st2" d="M163,42.2v-6.3c0-1.5-0.6-2.1-1.9-2.1c-1,0-1.9,0.5-2.4,1v7.4H156V31.9l2.8-0.4c0,0,0,1.6,0,1.6
			c1-1,2.3-1.7,3.6-1.7c2.2,0,3.5,1.4,3.5,3.6v7.1H163z"/>
		<path class="st2" d="M173.3,42.5c-2.4,0-3.7-1-3.6-3.5l0.2-4.9l-1.7-0.2l0.1-1.7l1.7-0.5l0-2.3h2.7l0,2.4h3l-0.1,2.2h-3.1
			l-0.1,4.8c0,1,0.5,1.4,1.4,1.4c0.6,0,1.1-0.1,1.7-0.3l0.4,2.2C175,42.4,174.3,42.5,173.3,42.5z"/>
		<path class="st2" d="M180.5,37.6c0.1,1.7,1.3,2.8,3.2,2.8c1.1,0,2.4-0.4,3.4-0.9l0.4,2.2c-1,0.5-2.5,0.9-3.9,0.9
			c-3.5,0-5.8-2.1-5.8-5.4c0-3.4,2.3-5.6,5.6-5.6c2.9,0,4.5,1.7,4.5,4.2c0,0.6-0.1,1.3-0.2,1.7C187.6,37.4,180.5,37.5,180.5,37.6
			L180.5,37.6z M185.2,35.9c0,0,0-0.2,0-0.2c0-1.4-0.6-2.3-2.1-2.3c-1.5,0-2.4,1.2-2.6,2.5L185.2,35.9z"/>
		<path class="st2" d="M193.7,42.2h-2.8V31.9l2.8-0.4v1.7c0.7-1.1,1.5-1.7,2.8-1.7c0.7,0,1.3,0.1,1.9,0.5l-0.6,2.4
			c-0.5-0.3-1-0.4-1.5-0.4c-1,0-1.9,0.6-2.6,1.8V42.2z"/>
	</g>
	<g id="XMLID_976_">
		<path class="st0" d="M36,47.1c-0.2-0.1-0.5-0.2-0.8-0.2c-0.5,0-0.7,0.3-0.7,1v0.6H36l0,1.2h-1.4V54h-1.3v-4.3l-0.9-0.1l0-0.9
			l0.8-0.3l0-0.6c0-1.6,0.7-2.2,1.8-2.2c0.5,0,0.9,0.2,1.2,0.3C36.3,45.9,36,47.2,36,47.1z"/>
		<path class="st0" d="M39.2,54.2c-1.5,0-2.5-1.1-2.5-2.9c0-1.8,1.1-3,2.6-3c1.5,0,2.5,1.1,2.5,3C41.8,53.1,40.6,54.2,39.2,54.2z
			 M39.2,49.4c-0.8,0-1.3,0.7-1.3,1.8c0,1.1,0.5,1.8,1.3,1.8c0.8,0,1.3-0.7,1.3-1.8S40,49.4,39.2,49.4z"/>
		<path class="st0" d="M44.3,54H43v-5.5l1.3-0.2v0.9c0.3-0.6,0.7-0.9,1.3-0.9c0.3,0,0.6,0.1,0.9,0.3l-0.3,1.3
			c-0.2-0.1-0.5-0.2-0.7-0.2c-0.4,0-0.9,0.3-1.2,1V54z"/>
		<path class="st0" d="M49.7,54v-7.5h4.6v1.2H51v1.9h2.7v1.2H51v1.9h3.3V54H49.7z"/>
		<path class="st0" d="M58.9,54v-3.4c0-0.8-0.3-1.1-0.9-1.1c-0.4,0-0.9,0.3-1.1,0.5v4h-1.3v-5.5l1.3-0.2c0,0,0,0.8,0,0.9
			c0.4-0.5,1-0.9,1.6-0.9c1,0,1.6,0.7,1.6,1.9V54H58.9z"/>
		<path class="st0" d="M63.4,54.2c-1.1,0-1.7-0.5-1.7-1.9l0.1-2.6l-0.8-0.1l0-0.9l0.8-0.3l0-1.2h1.2l0,1.3h1.4l0,1.2h-1.5L63,52.2
			c0,0.5,0.2,0.8,0.7,0.8c0.3,0,0.5-0.1,0.8-0.2l0.2,1.2C64.2,54.1,63.9,54.2,63.4,54.2z"/>
		<path class="st0" d="M66.9,54h-1.3v-5.5l1.3-0.2v0.9c0.3-0.6,0.7-0.9,1.3-0.9c0.3,0,0.6,0.1,0.9,0.3l-0.3,1.3
			c-0.2-0.1-0.5-0.2-0.7-0.2c-0.4,0-0.9,0.3-1.2,1V54z"/>
		<path class="st0" d="M70.9,51.6c0.1,0.9,0.6,1.5,1.5,1.5c0.5,0,1.1-0.2,1.6-0.5l0.2,1.2c-0.5,0.3-1.1,0.5-1.8,0.5
			c-1.6,0-2.7-1.1-2.7-2.9c0-1.8,1.1-3,2.6-3c1.3,0,2.1,0.9,2.1,2.2c0,0.3,0,0.7-0.1,0.9C74.2,51.5,70.9,51.5,70.9,51.6L70.9,51.6z
			 M73.1,50.7C73.1,50.7,73.1,50.6,73.1,50.7c0-0.8-0.3-1.3-1-1.3c-0.7,0-1.1,0.6-1.2,1.3L73.1,50.7z"/>
		<path class="st0" d="M78.2,48.3c1.3,0,2.2,1.2,2.2,2.9c0,1.8-1.1,3-2.5,3c-0.3,0-0.7,0-1.1-0.2v2.6h-1.3v-8.2l1.3-0.2
			c0,0,0,0.7,0,0.7C77.1,48.6,77.6,48.3,78.2,48.3z M76.8,52.8c0.2,0.2,0.6,0.3,0.9,0.3c0.9,0,1.3-0.8,1.3-1.8
			c0-1.1-0.5-1.8-1.3-1.8c-0.4,0-0.7,0.2-1,0.5C76.8,49.9,76.8,52.8,76.8,52.8z"/>
		<path class="st0" d="M82.9,54h-1.3v-5.5l1.3-0.2v0.9c0.3-0.6,0.7-0.9,1.3-0.9c0.3,0,0.6,0.1,0.9,0.3l-0.3,1.3
			c-0.2-0.1-0.5-0.2-0.7-0.2c-0.4,0-0.9,0.3-1.2,1V54z"/>
		<path class="st0" d="M86.8,51.6c0.1,0.9,0.6,1.5,1.5,1.5c0.5,0,1.1-0.2,1.6-0.5l0.2,1.2c-0.5,0.3-1.1,0.5-1.8,0.5
			c-1.6,0-2.7-1.1-2.7-2.9c0-1.8,1.1-3,2.6-3c1.3,0,2.1,0.9,2.1,2.2c0,0.3,0,0.7-0.1,0.9C90.1,51.5,86.8,51.5,86.8,51.6L86.8,51.6z
			 M89,50.7C89,50.7,89,50.6,89,50.7c0-0.8-0.3-1.3-1-1.3c-0.7,0-1.1,0.6-1.2,1.3L89,50.7z"/>
		<path class="st0" d="M94.7,54v-3.4c0-0.8-0.3-1.1-0.9-1.1c-0.4,0-0.9,0.3-1.1,0.5v4h-1.3v-5.5l1.3-0.2c0,0,0,0.8,0,0.9
			c0.4-0.5,1-0.9,1.6-0.9c1,0,1.6,0.7,1.6,1.9V54H94.7z"/>
		<path class="st0" d="M98.4,51.6c0.1,0.9,0.6,1.5,1.5,1.5c0.5,0,1.1-0.2,1.6-0.5l0.2,1.2c-0.5,0.3-1.1,0.5-1.8,0.5
			c-1.6,0-2.7-1.1-2.7-2.9c0-1.8,1.1-3,2.6-3c1.3,0,2.1,0.9,2.1,2.2c0,0.3,0,0.7-0.1,0.9C101.7,51.5,98.4,51.5,98.4,51.6L98.4,51.6z
			 M100.6,50.7C100.6,50.7,100.6,50.6,100.6,50.7c0-0.8-0.3-1.3-1-1.3c-0.7,0-1.1,0.6-1.2,1.3L100.6,50.7z"/>
		<path class="st0" d="M104.3,48.5v3.4c0,0.8,0.3,1.1,0.8,1.1c0.5,0,0.9-0.2,1.1-0.5v-4h1.3V54l-1.3,0.2c0,0,0-0.8,0-0.8
			c-0.4,0.5-1,0.8-1.6,0.8c-1,0-1.6-0.7-1.6-1.9v-3.8H104.3z"/>
		<path class="st0" d="M110.2,54h-1.3v-5.5l1.3-0.2v0.9c0.3-0.6,0.7-0.9,1.3-0.9c0.3,0,0.6,0.1,0.9,0.3l-0.3,1.3
			c-0.2-0.1-0.5-0.2-0.7-0.2c-0.4,0-0.9,0.3-1.2,1V54z"/>
		<path class="st0" d="M114.9,54.2c-0.7,0-1.4-0.2-1.9-0.5l0.3-1.1c0.5,0.3,1.1,0.5,1.7,0.5c0.5,0,0.8-0.2,0.8-0.6
			c0-0.4-0.4-0.6-1-0.7c-0.9-0.2-1.7-0.7-1.7-1.7s0.8-1.7,2-1.7c0.6,0,1.4,0.2,1.8,0.4l-0.3,1.1c-0.5-0.3-1.1-0.5-1.6-0.5
			c-0.5,0-0.7,0.2-0.7,0.6c0,0.4,0.4,0.6,1,0.7c1,0.3,1.7,0.7,1.7,1.7C117,53.4,116.2,54.2,114.9,54.2z"/>
		<path class="st0" d="M121.4,54v-3.4c0-0.8-0.3-1.1-0.8-1.1c-0.5,0-0.9,0.3-1.1,0.5v4h-1.3v-8l1.3-0.2c0,0,0,3.3,0,3.4
			c0.4-0.5,1-0.9,1.7-0.9c1,0,1.6,0.7,1.6,1.9V54H121.4z"/>
		<path class="st0" d="M124.8,47.5c-0.5,0-0.8-0.3-0.8-0.9c0-0.5,0.3-0.9,0.8-0.9c0.5,0,0.8,0.3,0.8,0.9
			C125.6,47.1,125.3,47.5,124.8,47.5z M124.2,54v-5.5l1.3-0.2V54H124.2z"/>
		<path class="st0" d="M129.6,48.3c1.3,0,2.2,1.2,2.2,2.9c0,1.8-1.1,3-2.5,3c-0.3,0-0.7,0-1.1-0.2v2.6h-1.3v-8.2l1.3-0.2
			c0,0,0,0.7,0,0.7C128.5,48.6,129,48.3,129.6,48.3z M128.2,52.8c0.2,0.2,0.6,0.3,0.9,0.3c0.9,0,1.3-0.8,1.3-1.8
			c0-1.1-0.5-1.8-1.3-1.8c-0.4,0-0.7,0.2-1,0.5C128.2,49.9,128.2,52.8,128.2,52.8z"/>
		<path class="st0" d="M136.7,54.2c-1.3,0-2.1-0.9-2.1-2.1c0-1,0.7-1.8,1.6-2c-0.7-0.4-1.1-1-1.1-1.7c0-1,0.8-2,2.1-2
			c1.2,0,2,0.8,2,1.8c0,0.8-0.6,1.4-1.3,1.7c0.3,0.2,0.8,0.6,1.2,1.1l0.8-1.5h1.4l-1.6,2.3l1.6,2.2l-1.3,0.3l-1-1.5
			C138.4,53.6,137.6,54.2,136.7,54.2z M136.8,50.5c-0.6,0.3-1,0.8-1,1.4c0,0.7,0.4,1.2,1.1,1.2c0.6,0,1.1-0.4,1.6-1.1
			C137.9,51.3,137.4,50.7,136.8,50.5z M138.1,48.3c0-0.6-0.4-1-0.9-1c-0.6,0-0.9,0.4-0.9,0.9c0,0.6,0.4,0.9,1,1.3
			C137.7,49.3,138.1,48.9,138.1,48.3z"/>
		<path class="st0" d="M147.2,47.8V54h-1.3v-6.2h-2.3v-1.3h5.8v1.3H147.2z"/>
		<path class="st0" d="M150.7,51.6c0.1,0.9,0.6,1.5,1.5,1.5c0.5,0,1.1-0.2,1.6-0.5l0.2,1.2c-0.5,0.3-1.1,0.5-1.8,0.5
			c-1.6,0-2.7-1.1-2.7-2.9c0-1.8,1.1-3,2.6-3c1.3,0,2.1,0.9,2.1,2.2c0,0.3,0,0.7-0.1,0.9C153.9,51.5,150.7,51.5,150.7,51.6
			L150.7,51.6z M152.8,50.7C152.8,50.7,152.8,50.6,152.8,50.7c0-0.8-0.3-1.3-1-1.3c-0.7,0-1.1,0.6-1.2,1.3L152.8,50.7z"/>
		<path class="st0" d="M157.6,54.2c-1.6,0-2.6-1.1-2.6-2.9c0-1.8,1.1-3,2.6-3c0.7,0,1.3,0.2,1.7,0.5l-0.3,1.1
			c-0.4-0.3-0.9-0.4-1.4-0.4c-0.9,0-1.4,0.7-1.4,1.8c0,1.1,0.6,1.8,1.4,1.8c0.5,0,1-0.2,1.4-0.4l0.2,1.2
			C158.9,54,158.2,54.2,157.6,54.2z"/>
		<path class="st0" d="M163.7,54v-3.4c0-0.8-0.3-1.1-0.8-1.1c-0.5,0-0.9,0.3-1.1,0.5v4h-1.3v-8l1.3-0.2c0,0,0,3.3,0,3.4
			c0.4-0.5,1-0.9,1.7-0.9c1,0,1.6,0.7,1.6,1.9V54H163.7z"/>
		<path class="st0" d="M169.7,54v-3.4c0-0.8-0.3-1.1-0.9-1.1c-0.4,0-0.9,0.3-1.1,0.5v4h-1.3v-5.5l1.3-0.2c0,0,0,0.8,0,0.9
			c0.4-0.5,1-0.9,1.6-0.9c1,0,1.6,0.7,1.6,1.9V54H169.7z"/>
		<path class="st0" d="M174.7,54.2c-1.5,0-2.5-1.1-2.5-2.9c0-1.8,1.1-3,2.6-3s2.5,1.1,2.5,3C177.3,53.1,176.1,54.2,174.7,54.2z
			 M174.7,49.4c-0.8,0-1.3,0.7-1.3,1.8c0,1.1,0.5,1.8,1.3,1.8c0.8,0,1.3-0.7,1.3-1.8S175.5,49.4,174.7,49.4z"/>
		<path class="st0" d="M178.5,54v-8l1.3-0.2V54H178.5z"/>
		<path class="st0" d="M183.5,54.2c-1.5,0-2.5-1.1-2.5-2.9c0-1.8,1.1-3,2.6-3c1.5,0,2.5,1.1,2.5,3C186.1,53.1,184.9,54.2,183.5,54.2
			z M183.5,49.4c-0.8,0-1.3,0.7-1.3,1.8c0,1.1,0.5,1.8,1.3,1.8c0.8,0,1.3-0.7,1.3-1.8S184.3,49.4,183.5,49.4z"/>
		<path class="st0" d="M187,53.3c0-0.5,0.4-1,0.9-1.2c-0.6-0.3-0.9-0.9-0.9-1.7c0-1.1,0.8-2.1,2.2-2.1c0.6,0,1.1,0.2,1.4,0.3
			l1.3-0.1l0.1,1.2l-1-0.2c0.1,0.2,0.2,0.6,0.2,0.9c0,1.1-0.9,2-2.1,2c-0.2,0-0.4,0-0.7-0.1c-0.2,0.1-0.4,0.3-0.4,0.5
			c0,0.3,0.2,0.4,1,0.4c0,0,0.6,0,0.5,0c1.4,0,2.2,0.4,2.2,1.5c0,1.3-1.3,2.2-2.9,2.2c-1.3,0-2.4-0.5-2.4-1.5c0-0.6,0.4-1.1,1.1-1.2
			C187.3,54.1,187,53.7,187,53.3z M187.8,55.2c0,0.5,0.6,0.9,1.4,0.9c0.9,0,1.5-0.4,1.5-0.9c0-0.5-0.5-0.6-1.4-0.6c-0.3,0-0.7,0-1,0
			C188.1,54.6,187.8,54.9,187.8,55.2z M189.2,51.5c0.6,0,0.9-0.5,0.9-1.2c0-0.7-0.3-1.1-1-1.1c-0.6,0-0.9,0.5-0.9,1.2
			C188.3,51.1,188.6,51.5,189.2,51.5z"/>
		<path class="st0" d="M195.8,53.9l-0.3,0.9c-0.5,1.5-1.1,2-2,2c-0.5,0-0.9-0.1-1.3-0.3l0.4-1.2c0.3,0.2,0.5,0.3,0.8,0.3
			c0.4,0,0.6-0.2,0.8-0.9l0.2-0.6l-2-5.5h1.4l1.2,4l1.2-4h1.4L195.8,53.9z"/>
	</g>
	<g id="XMLID_972_">
		<line class="st3" x1="32" y1="59.8" x2="195.3" y2="59.8"/>
		<rect x="32" y="59.5" class="st3" width="163.3" height="0.6"/>
	</g>
	<g id="XMLID_969_">
		<path class="st4" d="M15.2,32.8l2,1V27c0,0-0.8-2.7-2-0.4V32.8z"/>
	</g>
	<g id="XMLID_968_">
		<path class="st4" d="M18,34.2l2,1v-6.8c0,0-0.8-2.7-2-0.4V34.2z"/>
	</g>
	<g id="XMLID_967_">
		<path class="st4" d="M20.7,35.5l2,1v-6.8c0,0-0.8-2.7-2-0.4V35.5z"/>
	</g>
	<g id="XMLID_966_">
		<path class="st4" d="M11.7,32.8l-2,1V27c0,0,0.8-2.7,2-0.4V32.8z"/>
	</g>
	<g id="XMLID_965_">
		<path class="st4" d="M8.9,34.2l-2,1v-6.8c0,0,0.8-2.7,2-0.4V34.2z"/>
	</g>
	<g id="XMLID_964_">
		<path class="st4" d="M6.2,35.5l-2,1v-6.8c0,0,0.8-2.7,2-0.4V35.5z"/>
	</g>
	<g id="XMLID_963_">
		<polyline class="st4" points="0,44.3 0.8,45.2 13.4,39.1 13.4,37.7 0,44.3 		"/>
	</g>
	<g id="XMLID_962_">
		<polygon class="st4" points="13.4,37.7 13.4,39.1 26,45.2 26.8,44.2 		"/>
	</g>
	<g id="XMLID_961_">
		<polyline class="st1" points="12.9,0 12.9,3.7 12.7,3.7 7.3,18.3 5.9,18.3 4.7,14.5 3.4,22.2 1.6,23 2.6,23.7 13.3,18.2 
			13.4,18.2 13.4,18.2 24.1,23.7 25.1,23 23.4,22.2 22,14.5 20.8,18.3 19.4,18.3 14.1,3.7 13.8,3.7 13.8,0 		"/>
	</g>
	<g id="XMLID_960_">
		<polyline class="st0" points="12.9,0 12.9,3.7 12.7,3.7 7.3,18.3 5.9,18.3 4.7,14.5 3.4,22.2 1.6,23 2.6,23.7 13.3,18.2 
			13.4,18.2 13.4,18.2 13.4,0 		"/>
	</g>
	<g id="XMLID_951_">
		<path class="st1" d="M37.3,68.9c0,0.9-0.6,1.5-2,1.5h-1.8v-5.3h1.8c1.3,0,1.8,0.6,1.8,1.4c0,0.5-0.3,0.9-0.9,1.2
			C36.9,67.8,37.3,68.3,37.3,68.9z M35.3,65.7h-1.1v1.7c0,0,1,0,1,0c0.8,0,1.2-0.3,1.2-0.9C36.4,66,36,65.7,35.3,65.7z M35.2,68h-1
			v1.7h1.2c0.8,0,1.2-0.3,1.2-0.8C36.5,68.3,36,68,35.2,68z"/>
		<path class="st1" d="M39,68.5c0,0.8,0.5,1.3,1.3,1.3c0.4,0,0.8-0.1,1.2-0.3l0.1,0.6c-0.3,0.2-0.8,0.3-1.3,0.3c-1.2,0-2-0.8-2-2
			c0-1.3,0.8-2.1,1.9-2.1c0.9,0,1.5,0.6,1.5,1.5c0,0.2,0,0.4-0.1,0.6C41.6,68.5,39,68.5,39,68.5L39,68.5z M41,68L41,68
			c0-0.6-0.3-1-0.9-1c-0.7,0-1.1,0.5-1.1,1L41,68z"/>
		<path class="st1" d="M43.6,70.4H43v-3.9l0.7-0.1V67c0.3-0.4,0.6-0.7,1.1-0.7c0.3,0,0.5,0.1,0.7,0.2l-0.2,0.7
			c-0.2-0.1-0.4-0.2-0.6-0.2c-0.4,0-0.7,0.3-1,0.8V70.4z"/>
		<path class="st1" d="M47.2,68.4v1.9h-0.7v-5.7l0.7-0.1v3.7h0l1.6-1.8h0.9l-1.8,1.8l1.8,2h-0.9L47.2,68.4L47.2,68.4z"/>
		<path class="st1" d="M50.9,68.5c0,0.8,0.5,1.3,1.3,1.3c0.4,0,0.8-0.1,1.2-0.3l0.1,0.6c-0.3,0.2-0.8,0.3-1.3,0.3c-1.2,0-2-0.8-2-2
			c0-1.3,0.8-2.1,1.9-2.1c0.9,0,1.5,0.6,1.5,1.5c0,0.2,0,0.4-0.1,0.6C53.5,68.5,50.9,68.5,50.9,68.5L50.9,68.5z M53,68L53,68
			c0-0.6-0.3-1-0.9-1c-0.7,0-1.1,0.5-1.1,1L53,68z"/>
		<path class="st1" d="M54.9,70.4v-5.7l0.7-0.1v5.8H54.9z"/>
		<path class="st1" d="M57.5,68.5c0,0.8,0.5,1.3,1.3,1.3c0.4,0,0.8-0.1,1.2-0.3l0.1,0.6c-0.3,0.2-0.8,0.3-1.3,0.3c-1.2,0-2-0.8-2-2
			c0-1.3,0.8-2.1,1.9-2.1c0.9,0,1.5,0.6,1.5,1.5c0,0.2,0,0.4-0.1,0.6C60.1,68.5,57.5,68.5,57.5,68.5L57.5,68.5z M59.5,68L59.5,68
			c0-0.6-0.3-1-0.9-1c-0.7,0-1.1,0.5-1.1,1L59.5,68z"/>
		<path class="st1" d="M63,70.4l-0.3,0.7c-0.4,1-0.8,1.3-1.4,1.3c-0.3,0-0.6-0.1-0.8-0.2l0.2-0.6c0.2,0.1,0.4,0.2,0.6,0.2
			c0.3,0,0.5-0.2,0.7-0.8l0.2-0.6l-1.5-3.8h0.7l1.1,3l1.1-3h0.7L63,70.4z"/>
		<path class="st1" d="M67.6,70.4v-5.3H71v0.7h-2.6v1.6h2.2V68h-2.2v1.7H71v0.7H67.6z"/>
		<path class="st1" d="M74.7,70.4v-2.4c0-0.7-0.3-0.9-0.8-0.9c-0.4,0-0.8,0.2-1,0.4v2.9h-0.7v-3.9l0.7-0.1v0.6
			c0.4-0.4,0.8-0.6,1.3-0.6c0.8,0,1.3,0.5,1.3,1.3v2.7H74.7z"/>
		<path class="st1" d="M76.7,69.8c0-0.3,0.3-0.6,0.6-0.8c-0.4-0.2-0.6-0.7-0.6-1.2c0-0.8,0.6-1.5,1.6-1.5c0.4,0,0.8,0.1,1,0.2l1-0.1
			l0,0.7L79.5,67c0.2,0.1,0.3,0.5,0.3,0.8c0,0.8-0.6,1.4-1.6,1.4c-0.2,0-0.3,0-0.5-0.1c-0.2,0.1-0.4,0.2-0.4,0.4
			c0,0.2,0.2,0.4,0.9,0.4c0,0,0.4,0,0.4,0c1.2,0,1.7,0.4,1.7,1c0,0.9-0.9,1.5-2.1,1.5c-1,0-1.8-0.4-1.8-1.1c0-0.4,0.3-0.8,0.8-0.9
			C76.8,70.3,76.7,70,76.7,69.8z M77,71.2c0,0.4,0.5,0.7,1.2,0.7c0.7,0,1.3-0.3,1.3-0.8c0-0.4-0.4-0.5-1.2-0.5c-0.2,0-0.5,0-0.7,0
			C77.3,70.7,77,70.9,77,71.2z M78.3,68.7c0.5,0,0.8-0.4,0.8-0.9c0-0.5-0.3-0.9-0.9-0.9c-0.5,0-0.8,0.4-0.8,0.9
			C77.4,68.3,77.7,68.7,78.3,68.7z"/>
		<path class="st1" d="M81.6,65.6c-0.3,0-0.5-0.2-0.5-0.5s0.1-0.5,0.5-0.5s0.5,0.2,0.5,0.5S81.9,65.6,81.6,65.6z M81.3,70.4v-3.9
			l0.7-0.1v4H81.3z"/>
		<path class="st1" d="M86,70.4v-2.4c0-0.7-0.3-0.9-0.8-0.9c-0.4,0-0.8,0.2-1,0.4v2.9h-0.7v-3.9l0.7-0.1v0.6
			c0.4-0.4,0.8-0.6,1.3-0.6c0.8,0,1.3,0.5,1.3,1.3v2.7H86z"/>
		<path class="st1" d="M88.6,68.5c0,0.8,0.5,1.3,1.3,1.3c0.4,0,0.8-0.1,1.2-0.3l0.1,0.6c-0.3,0.2-0.8,0.3-1.3,0.3c-1.2,0-2-0.8-2-2
			c0-1.3,0.8-2.1,1.9-2.1c0.9,0,1.5,0.6,1.5,1.5c0,0.2,0,0.4-0.1,0.6C91.2,68.5,88.6,68.5,88.6,68.5L88.6,68.5z M90.6,68L90.6,68
			c0-0.6-0.3-1-0.9-1c-0.7,0-1.1,0.5-1.1,1L90.6,68z"/>
		<path class="st1" d="M93,68.5c0,0.8,0.5,1.3,1.3,1.3c0.4,0,0.8-0.1,1.2-0.3l0.1,0.6c-0.3,0.2-0.8,0.3-1.3,0.3c-1.2,0-2-0.8-2-2
			c0-1.3,0.8-2.1,1.9-2.1c0.9,0,1.5,0.6,1.5,1.5c0,0.2,0,0.4-0.1,0.6C95.6,68.5,93,68.5,93,68.5L93,68.5z M95,68L95,68
			c0-0.6-0.3-1-0.9-1c-0.7,0-1.1,0.5-1.1,1L95,68z"/>
		<path class="st1" d="M97.6,70.4h-0.7v-3.9l0.7-0.1V67c0.3-0.4,0.6-0.7,1.1-0.7c0.3,0,0.5,0.1,0.7,0.2l-0.2,0.7
			C99,67.1,98.8,67,98.6,67c-0.4,0-0.7,0.3-1,0.8V70.4z"/>
		<path class="st1" d="M100.8,65.6c-0.3,0-0.5-0.2-0.5-0.5s0.1-0.5,0.5-0.5c0.3,0,0.5,0.2,0.5,0.5S101.1,65.6,100.8,65.6z
			 M100.4,70.4v-3.9l0.7-0.1v4H100.4z"/>
		<path class="st1" d="M105.1,70.4v-2.4c0-0.7-0.3-0.9-0.8-0.9c-0.4,0-0.8,0.2-1,0.4v2.9h-0.7v-3.9l0.7-0.1v0.6
			c0.4-0.4,0.8-0.6,1.3-0.6c0.8,0,1.3,0.5,1.3,1.3v2.7H105.1z"/>
		<path class="st1" d="M107.1,69.8c0-0.3,0.3-0.6,0.6-0.8c-0.4-0.2-0.6-0.7-0.6-1.2c0-0.8,0.6-1.5,1.6-1.5c0.4,0,0.8,0.1,1,0.2
			l1-0.1l0,0.7l-0.7-0.1c0.2,0.1,0.3,0.5,0.3,0.8c0,0.8-0.6,1.4-1.6,1.4c-0.2,0-0.3,0-0.5-0.1c-0.2,0.1-0.4,0.2-0.4,0.4
			c0,0.2,0.2,0.4,0.9,0.4c0,0,0.4,0,0.4,0c1.2,0,1.7,0.4,1.7,1c0,0.9-0.9,1.5-2.1,1.5c-1,0-1.8-0.4-1.8-1.1c0-0.4,0.3-0.8,0.8-0.9
			C107.3,70.3,107.1,70,107.1,69.8z M107.4,71.2c0,0.4,0.5,0.7,1.2,0.7c0.7,0,1.3-0.3,1.3-0.8c0-0.4-0.4-0.5-1.2-0.5
			c-0.2,0-0.5,0-0.7,0C107.7,70.7,107.4,70.9,107.4,71.2z M108.7,68.7c0.5,0,0.8-0.4,0.8-0.9c0-0.5-0.3-0.9-0.9-0.9
			c-0.5,0-0.8,0.4-0.8,0.9C107.8,68.3,108.1,68.7,108.7,68.7z"/>
	</g>
	<g id="XMLID_882_">
		<path class="st0" d="M34.6,21.7l-0.6,0v1.5h-0.6v-4.6c0,0,1.3,0,1.3,0c1.3,0,1.8,0.6,1.8,1.5C36.5,21.2,35.8,21.7,34.6,21.7z
			 M34.7,19.2c0,0-0.6,0-0.6,0v1.9l0.7,0c0.8,0,1.2-0.4,1.2-1C35.9,19.6,35.5,19.2,34.7,19.2z"/>
		<path class="st0" d="M39.2,22.9c-0.3,0.3-0.6,0.5-0.9,0.5c-0.6,0-1.1-0.4-1.1-1c0-0.6,0.4-1.1,2-1.2v-0.1c0-0.5-0.2-0.8-0.8-0.8
			c-0.3,0-0.8,0.2-1.1,0.4l-0.1-0.5c0.3-0.2,0.8-0.4,1.3-0.4c0.9,0,1.3,0.4,1.3,1.3v1.4c0,0.3,0,0.3,0.3,0.3l0,0.5
			C39.6,23.4,39.3,23.2,39.2,22.9L39.2,22.9z M39.2,21.6c-1,0.1-1.4,0.3-1.4,0.8c0,0.3,0.2,0.5,0.6,0.5c0.3,0,0.6-0.2,0.8-0.4V21.6z
			"/>
		<path class="st0" d="M43.2,23.3v-2.1c0-0.6-0.2-0.8-0.7-0.8c-0.4,0-0.7,0.2-0.9,0.4v2.5H41v-3.4l0.6-0.1v0.5
			c0.3-0.3,0.7-0.5,1.1-0.5c0.7,0,1.1,0.4,1.1,1.2v2.3H43.2z"/>
		<path class="st0" d="M46,23.4c-0.7,0-1-0.3-1-1.1l0.1-1.9l-0.6,0l0-0.4l0.6-0.2l0-0.7h0.6l0,0.8h1.1l0,0.5h-1.1l-0.1,1.9
			c0,0.3,0.1,0.5,0.4,0.5c0.2,0,0.4-0.1,0.6-0.1c0,0,0.1,0.5,0.1,0.5C46.5,23.3,46.2,23.4,46,23.4z"/>
		<path class="st0" d="M49.3,22.9c-0.3,0.3-0.6,0.5-0.9,0.5c-0.6,0-1.1-0.4-1.1-1c0-0.6,0.4-1.1,2-1.2v-0.1c0-0.5-0.2-0.8-0.8-0.8
			c-0.3,0-0.8,0.2-1.1,0.4l-0.1-0.5c0.3-0.2,0.8-0.4,1.3-0.4c0.9,0,1.3,0.4,1.3,1.3v1.4c0,0.3,0,0.3,0.3,0.3l0,0.5
			C49.7,23.4,49.5,23.2,49.3,22.9L49.3,22.9z M49.3,21.6c-1,0.1-1.4,0.3-1.4,0.8c0,0.3,0.2,0.5,0.6,0.5c0.3,0,0.6-0.2,0.8-0.4V21.6z
			"/>
		<path class="st0" d="M52.1,23.4c-0.4,0-0.9-0.1-1.2-0.3l0.2-0.6c0.3,0.2,0.7,0.3,1,0.3c0.4,0,0.7-0.2,0.7-0.5
			c0-0.3-0.4-0.5-0.8-0.6c-0.5-0.1-1-0.4-1-1c0-0.6,0.5-1,1.2-1c0.4,0,0.8,0.1,1.1,0.3l-0.2,0.6c-0.3-0.2-0.7-0.3-1-0.3
			c-0.4,0-0.6,0.1-0.6,0.4c0,0.3,0.4,0.4,0.8,0.5c0.5,0.1,1,0.4,1,1S52.8,23.4,52.1,23.4z"/>
		<path class="st0" d="M57.6,22.9c-0.3,0.3-0.6,0.5-0.9,0.5c-0.6,0-1.1-0.4-1.1-1c0-0.6,0.4-1.1,2-1.2v-0.1c0-0.5-0.2-0.8-0.8-0.8
			c-0.3,0-0.8,0.2-1.1,0.4l-0.1-0.5c0.3-0.2,0.8-0.4,1.3-0.4c0.9,0,1.3,0.4,1.3,1.3v1.4c0,0.3,0,0.3,0.3,0.3l0,0.5
			C57.9,23.4,57.7,23.2,57.6,22.9L57.6,22.9z M57.6,21.6c-1,0.1-1.4,0.3-1.4,0.8c0,0.3,0.2,0.5,0.6,0.5c0.3,0,0.6-0.2,0.8-0.4V21.6z
			"/>
		<path class="st0" d="M61.5,23.3v-2.1c0-0.6-0.2-0.8-0.7-0.8c-0.4,0-0.7,0.2-0.9,0.4v2.5h-0.6v-3.4l0.6-0.1v0.5
			c0.3-0.3,0.7-0.5,1.1-0.5c0.7,0,1.1,0.4,1.1,1.2v2.3H61.5z"/>
		<path class="st0" d="M65.5,18.3l0.6-0.1v5.1h-0.6c0,0,0-0.3,0-0.3c-0.2,0.2-0.5,0.4-0.9,0.4c-1,0-1.5-0.8-1.5-1.8
			c0-1,0.7-1.8,1.7-1.8c0.2,0,0.5,0,0.7,0.1V18.3z M64.7,20.3c-0.7,0-1.1,0.6-1.1,1.3c0,0.7,0.4,1.2,1,1.2c0.3,0,0.6-0.1,0.8-0.3
			c0,0,0-1.9,0-1.9C65.3,20.4,65,20.3,64.7,20.3z"/>
		<path class="st0" d="M70.7,19.3v4h-0.6v-4h-1.6v-0.6h3.9v0.6H70.7z"/>
		<path class="st0" d="M73.5,19.1c-0.3,0-0.4-0.2-0.4-0.4s0.1-0.4,0.4-0.4c0.3,0,0.4,0.2,0.4,0.4S73.7,19.1,73.5,19.1z M73.2,23.3
			v-3.4l0.6-0.1v3.5H73.2z"/>
		<path class="st0" d="M77.1,23.3v-2.1c0-0.6-0.2-0.8-0.7-0.8c-0.4,0-0.7,0.2-0.9,0.4v2.5h-0.6v-3.4l0.6-0.1v0.5
			c0.3-0.3,0.7-0.5,1.1-0.5c0.7,0,1.1,0.4,1.1,1.2v2.3H77.1z"/>
		<path class="st0" d="M78.6,22.8c0-0.3,0.2-0.5,0.6-0.7c-0.4-0.2-0.6-0.6-0.6-1c0-0.7,0.5-1.3,1.4-1.3c0.4,0,0.7,0.1,0.9,0.2
			l0.9-0.1l0,0.6l-0.7-0.1c0.1,0.1,0.2,0.4,0.2,0.7c0,0.7-0.6,1.2-1.4,1.2c-0.2,0-0.3,0-0.5-0.1c-0.1,0.1-0.3,0.2-0.3,0.4
			c0,0.2,0.1,0.3,0.8,0.3c0,0,0.4,0,0.3,0c1,0,1.5,0.3,1.5,0.9c0,0.7-0.8,1.3-1.8,1.3c-0.9,0-1.6-0.4-1.6-1c0-0.4,0.3-0.7,0.7-0.8
			C78.8,23.2,78.6,23,78.6,22.8z M79,24c0,0.4,0.4,0.6,1.1,0.6c0.6,0,1.1-0.3,1.1-0.7c0-0.4-0.3-0.5-1-0.5c-0.2,0-0.5,0-0.6,0
			C79.2,23.5,79,23.7,79,24z M80,21.8c0.4,0,0.7-0.3,0.7-0.8c0-0.4-0.3-0.8-0.8-0.8c-0.4,0-0.7,0.3-0.7,0.8
			C79.3,21.5,79.6,21.8,80,21.8z"/>
	</g>
</g>
</svg>
